<?xml version="1.0" encoding="iso-8859-1"?>
<!-- Generator: Adobe Illustrator 19.0.0, SVG Export Plug-In . SVG Version: 6.00 Build 0)  -->
<svg version="1.1" id="Capa_1" xmlns="http://www.w3.org/2000/svg" xmlns:xlink="http://www.w3.org/1999/xlink" x="0px" y="0px"
	 viewBox="0 0 487.302 487.302" style="enable-background:new 0 0 487.302 487.302;" xml:space="preserve">
<linearGradient id="SVGID_1_" gradientUnits="userSpaceOnUse" x1="342.0031" y1="495.0269" x2="342.0031" y2="21.0849" gradientTransform="matrix(1 0 0 -1 0 488.9897)">
	<stop  offset="0" style="stop-color:#00EFD1"/>
	<stop  offset="1" style="stop-color:#00ACEA"/>
</linearGradient>
<path style="fill:url(#SVGID_1_);" d="M377.916,179.639c-25.381-19.587-61.834-14.89-81.421,10.491
	c-5.405,7.003-9.137,15.15-10.912,23.816l19.6,3.994c4.243-20.59,24.374-33.842,44.964-29.6
	c13.98,2.881,25.174,13.341,28.994,27.094l19.282-5.313C395.035,198.023,387.845,187.336,377.916,179.639L377.916,179.639z"/>
<g>
	
		<linearGradient id="SVGID_2_" gradientUnits="userSpaceOnUse" x1="243.6511" y1="495.0269" x2="243.6511" y2="21.0849" gradientTransform="matrix(1 0 0 -1 0 488.9897)">
		<stop  offset="0" style="stop-color:#00EFD1"/>
		<stop  offset="1" style="stop-color:#00ACEA"/>
	</linearGradient>
	<path style="fill:url(#SVGID_2_);" d="M243.494,0.001C109.02-0.003,0.004,109.007,0.001,243.481
		c-0.002,64.582,25.654,126.52,71.322,172.184c94.91,95.264,249.078,95.551,344.342,0.641s95.551-249.078,0.641-344.342
		c-0.213-0.214-0.427-0.428-0.641-0.641C370.104,25.509,308.107-0.173,243.494,0.001L243.494,0.001z M243.494,466.989
		C120.259,466.989,20,366.73,20,243.495S120.259,20.001,243.494,20.001S466.988,120.26,466.988,243.495
		S366.729,466.989,243.494,466.989z"/>
	
		<linearGradient id="SVGID_3_" gradientUnits="userSpaceOnUse" x1="115.9761" y1="495.0269" x2="115.9761" y2="21.0849" gradientTransform="matrix(1 0 0 -1 0 488.9897)">
		<stop  offset="0" style="stop-color:#00EFD1"/>
		<stop  offset="1" style="stop-color:#00ACEA"/>
	</linearGradient>
	<path style="fill:url(#SVGID_3_);" d="M147.151,125.458l6.825-18.8c-30.77-11.114-64.736,4.726-76,35.441l18.787,6.86
		C104.232,128.596,126.75,118.094,147.151,125.458L147.151,125.458z"/>
	
		<linearGradient id="SVGID_4_" gradientUnits="userSpaceOnUse" x1="370.9517" y1="495.0269" x2="370.9517" y2="21.0849" gradientTransform="matrix(1 0 0 -1 0 488.9897)">
		<stop  offset="0" style="stop-color:#00EFD1"/>
		<stop  offset="1" style="stop-color:#00ACEA"/>
	</linearGradient>
	<path style="fill:url(#SVGID_4_);" d="M332.766,107.004l7.006,18.733c20.338-7.564,42.966,2.715,50.65,23.008l18.715-7.051
		C397.555,111.093,363.431,95.594,332.766,107.004z"/>
	
		<linearGradient id="SVGID_5_" gradientUnits="userSpaceOnUse" x1="243.4941" y1="495.0269" x2="243.4941" y2="21.0849" gradientTransform="matrix(1 0 0 -1 0 488.9897)">
		<stop  offset="0" style="stop-color:#00EFD1"/>
		<stop  offset="1" style="stop-color:#00ACEA"/>
	</linearGradient>
	<path style="fill:url(#SVGID_5_);" d="M129.494,315.256c0,62.96,51.04,114,114,114s114-51.04,114-114v-54.761h-228V315.256z
		 M243.494,409.031c-20.484-0.016-40.401-6.727-56.718-19.11l9.353-3.426c30.589-11.164,64.137-11.164,94.726,0l9.363,3.426
		C283.932,402.366,263.991,409.084,243.494,409.031L243.494,409.031z M316.208,374.404l-18.483-6.727
		c-35.028-12.777-73.443-12.77-108.466,0.019l-18.458,6.691c-13.317-16.387-20.731-36.779-21.05-57.892h187.5
		C337.125,337.647,329.691,358.105,316.208,374.404L316.208,374.404z M149.494,280.495h188v16h-188L149.494,280.495z"/>
	
		<linearGradient id="SVGID_6_" gradientUnits="userSpaceOnUse" x1="144.8302" y1="495.0269" x2="144.8302" y2="21.0849" gradientTransform="matrix(1 0 0 -1 0 488.9897)">
		<stop  offset="0" style="stop-color:#00EFD1"/>
		<stop  offset="1" style="stop-color:#00ACEA"/>
	</linearGradient>
	<path style="fill:url(#SVGID_6_);" d="M168.51,195.461c6.511,5.043,11.228,12.045,13.456,19.973l19.281-5.313
		c-3.387-12.097-10.574-22.783-20.5-30.482c-25.381-19.587-61.835-14.889-81.422,10.492c-5.404,7.003-9.137,15.149-10.912,23.815
		l19.6,3.994c4.229-20.584,24.345-33.843,44.929-29.613c5.665,1.164,10.99,3.604,15.571,7.134L168.51,195.461z"/>
</g>
<g>
</g>
<g>
</g>
<g>
</g>
<g>
</g>
<g>
</g>
<g>
</g>
<g>
</g>
<g>
</g>
<g>
</g>
<g>
</g>
<g>
</g>
<g>
</g>
<g>
</g>
<g>
</g>
<g>
</g>
</svg>
